<svg xmlns="http://www.w3.org/2000/svg" viewBox="0 0 800 520">
<defs>
  <linearGradient id="psvc-bg" x1="0" y1="0" x2="0" y2="1">
    <stop offset="0%" stop-color="#0a1628"/>
    <stop offset="100%" stop-color="#1a2a3a"/>
  </linearGradient>
  <linearGradient id="psvc-drive" x1="0" y1="0" x2="1" y2="0">
    <stop offset="0%" stop-color="#2a2820"/>
    <stop offset="50%" stop-color="#8a8880"/>
    <stop offset="100%" stop-color="#8a8880"/>
  </linearGradient>
  <linearGradient id="psvc-house" x1="0" y1="0" x2="1" y2="0">
    <stop offset="0%" stop-color="#3a3628"/>
    <stop offset="55%" stop-color="#c8d0d8"/>
    <stop offset="100%" stop-color="#c8d0d8"/>
  </linearGradient>
  <radialGradient id="psvc-spray" cx="40%" cy="60%" r="35%">
    <stop offset="0%" stop-color="#a0d8f8" stop-opacity="0.9"/>
    <stop offset="60%" stop-color="#60b8e8" stop-opacity="0.4"/>
    <stop offset="100%" stop-color="transparent"/>
  </radialGradient>
  <filter id="psvc-glow">
    <feGaussianBlur stdDeviation="5"/>
  </filter>
</defs>
<rect width="800" height="520" fill="url(#psvc-bg)"/>
<!-- Ground / concrete - split clean/dirty -->
<rect x="0" y="360" width="800" height="160" fill="url(#psvc-drive)"/>
<g stroke="#252820" stroke-width="1" opacity="0.6">
  <line x1="0" y1="380" x2="800" y2="380"/>
  <line x1="0" y1="400" x2="800" y2="400"/>
  <line x1="0" y1="420" x2="800" y2="420"/>
  <line x1="0" y1="440" x2="800" y2="440"/>
  <line x1="0" y1="460" x2="800" y2="460"/>
  <line x1="0" y1="480" x2="800" y2="480"/>
  <line x1="0" y1="500" x2="800" y2="500"/>
</g>
<!-- Clean line on ground -->
<rect x="320" y="360" width="4" height="160" fill="#a0d8f8" opacity="0.5"/>
<rect x="320" y="360" width="2" height="160" fill="#c0e8f8" opacity="0.8"/>

<!-- House exterior split -->
<rect x="0" y="80" width="800" height="280" fill="url(#psvc-house)"/>
<!-- Siding lines -->
<g opacity="0.7">
  <g stroke="#252218" stroke-width="1.5">
    <line x1="0" y1="100" x2="330" y2="100"/>
    <line x1="0" y1="120" x2="330" y2="120"/>
    <line x1="0" y1="140" x2="330" y2="140"/>
    <line x1="0" y1="160" x2="330" y2="160"/>
    <line x1="0" y1="180" x2="330" y2="180"/>
    <line x1="0" y1="200" x2="330" y2="200"/>
    <line x1="0" y1="220" x2="330" y2="220"/>
    <line x1="0" y1="240" x2="330" y2="240"/>
    <line x1="0" y1="260" x2="330" y2="260"/>
    <line x1="0" y1="280" x2="330" y2="280"/>
    <line x1="0" y1="300" x2="330" y2="300"/>
    <line x1="0" y1="320" x2="330" y2="320"/>
    <line x1="0" y1="340" x2="330" y2="340"/>
  </g>
  <g stroke="#9aa4ae" stroke-width="1.5">
    <line x1="330" y1="100" x2="800" y2="100"/>
    <line x1="330" y1="120" x2="800" y2="120"/>
    <line x1="330" y1="140" x2="800" y2="140"/>
    <line x1="330" y1="160" x2="800" y2="160"/>
    <line x1="330" y1="180" x2="800" y2="180"/>
    <line x1="330" y1="200" x2="800" y2="200"/>
    <line x1="330" y1="220" x2="800" y2="220"/>
    <line x1="330" y1="240" x2="800" y2="240"/>
    <line x1="330" y1="260" x2="800" y2="260"/>
    <line x1="330" y1="280" x2="800" y2="280"/>
    <line x1="330" y1="300" x2="800" y2="300"/>
    <line x1="330" y1="320" x2="800" y2="320"/>
    <line x1="330" y1="340" x2="800" y2="340"/>
  </g>
</g>
<!-- Dirty stains left side -->
<ellipse cx="120" cy="200" rx="80" ry="60" fill="#2a3810" opacity="0.25"/>
<ellipse cx="260" cy="160" rx="60" ry="50" fill="#2a3810" opacity="0.2"/>
<ellipse cx="60" cy="300" rx="50" ry="40" fill="#1a2a08" opacity="0.2"/>
<!-- Clean house split line -->
<rect x="326" y="80" width="8" height="280" fill="url(#psvc-spray)"/>

<!-- Worker + wand mid-frame -->
<rect x="290" y="260" width="24" height="80" rx="4" fill="#1a2230"/>
<circle cx="302" cy="248" r="18" fill="#1a2230"/>
<rect x="310" y="295" width="4" height="3" fill="#c4922a" opacity="0.8"/>
<!-- Wand arm -->
<line x1="310" y1="295" x2="330" y2="360" stroke="#3a4a5a" stroke-width="5"/>
<!-- Wand tip -->
<line x1="330" y1="360" x2="322" y2="400" stroke="#c4922a" stroke-width="4"/>
<!-- Pressure washer unit on ground -->
<rect x="350" y="420" width="60" height="50" rx="4" fill="#1a2030"/>
<rect x="358" y="426" width="44" height="36" rx="2" fill="#141820"/>
<rect x="362" y="430" width="18" height="14" rx="1" fill="#c4922a" opacity="0.6"/>
<!-- Hose from unit to worker -->
<path d="M 380 420 Q 360 380 320 310" stroke="#3a4a5a" stroke-width="5" fill="none"/>

<!-- Spray fan -->
<path d="M 322 400 L 260 320 L 328 360 Z" fill="url(#psvc-spray)" opacity="0.7"/>
<path d="M 322 400 L 270 340 L 328 368 Z" fill="#a0d8f8" opacity="0.4"/>
<path d="M 322 400 L 250 360 L 322 390 Z" fill="url(#psvc-spray)" opacity="0.5"/>

<!-- Spray glow -->
<ellipse cx="290" cy="360" rx="50" ry="30" fill="#60c0f0" opacity="0.15" filter="url(#psvc-glow)"/>

<!-- Labels -->
<rect x="40" y="460" width="70" height="22" rx="3" fill="rgba(0,0,0,0.7)"/>
<text x="75" y="476" font-family="Arial,sans-serif" font-size="10" fill="#a09060" text-anchor="middle">BEFORE</text>
<rect x="680" y="460" width="70" height="22" rx="3" fill="rgba(0,0,0,0.7)"/>
<text x="715" y="476" font-family="Arial,sans-serif" font-size="10" fill="#60c0e8" text-anchor="middle">AFTER</text>

<radialGradient id="psvc-vig" cx="50%" cy="50%" r="70%">
  <stop offset="0%" stop-color="transparent"/>
  <stop offset="100%" stop-color="rgba(0,0,0,0.5)"/>
</radialGradient>
<rect width="800" height="520" fill="url(#psvc-vig)"/>
</svg>