<svg xmlns="http://www.w3.org/2000/svg" viewBox="0 0 800 520">
<defs>
  <linearGradient id="psky" x1="0" y1="0" x2="0" y2="1">
    <stop offset="0%" stop-color="#0a1628"/>
    <stop offset="100%" stop-color="#1a2a3a"/>
  </linearGradient>
  <linearGradient id="psiding-dirty" x1="0" y1="0" x2="0" y2="1">
    <stop offset="0%" stop-color="#3a3628"/>
    <stop offset="100%" stop-color="#2e2a1e"/>
  </linearGradient>
  <linearGradient id="psiding-clean" x1="0" y1="0" x2="0" y2="1">
    <stop offset="0%" stop-color="#c8d0d8"/>
    <stop offset="100%" stop-color="#b0bac4"/>
  </linearGradient>
  <linearGradient id="pdrive-dirty" x1="0" y1="0" x2="0" y2="1">
    <stop offset="0%" stop-color="#2a2820"/>
    <stop offset="100%" stop-color="#1e1c18"/>
  </linearGradient>
  <linearGradient id="pdrive-clean" x1="0" y1="0" x2="0" y2="1">
    <stop offset="0%" stop-color="#8a8880"/>
    <stop offset="100%" stop-color="#707068"/>
  </linearGradient>
  <linearGradient id="pwater" x1="0" y1="0" x2="1" y2="1">
    <stop offset="0%" stop-color="#80c0e8" stop-opacity="0.9"/>
    <stop offset="100%" stop-color="#40a0d0" stop-opacity="0"/>
  </linearGradient>
  <filter id="pglow">
    <feGaussianBlur stdDeviation="4" result="blur"/>
    <feMerge><feMergeNode in="blur"/><feMergeNode in="SourceGraphic"/></feMerge>
  </filter>
</defs>
<!-- Sky -->
<rect width="800" height="520" fill="url(#psky)"/>

<!-- House - dirty left half -->
<rect x="0" y="50" width="400" height="300" fill="url(#psiding-dirty)"/>
<!-- Dirty siding lines -->
<g stroke="#252218" stroke-width="1.5" opacity="0.8">
  <line x1="0" y1="80" x2="400" y2="80"/>
  <line x1="0" y1="100" x2="400" y2="100"/>
  <line x1="0" y1="120" x2="400" y2="120"/>
  <line x1="0" y1="140" x2="400" y2="140"/>
  <line x1="0" y1="160" x2="400" y2="160"/>
  <line x1="0" y1="180" x2="400" y2="180"/>
  <line x1="0" y1="200" x2="400" y2="200"/>
  <line x1="0" y1="220" x2="400" y2="220"/>
  <line x1="0" y1="240" x2="400" y2="240"/>
  <line x1="0" y1="260" x2="400" y2="260"/>
  <line x1="0" y1="280" x2="400" y2="280"/>
  <line x1="0" y1="300" x2="400" y2="300"/>
  <line x1="0" y1="320" x2="400" y2="320"/>
  <line x1="0" y1="340" x2="400" y2="340"/>
</g>
<!-- Algae/dirt stains -->
<rect x="20" y="150" width="60" height="80" rx="4" fill="#3a4a20" opacity="0.3"/>
<rect x="100" y="200" width="40" height="60" rx="4" fill="#2a3a18" opacity="0.25"/>
<rect x="200" y="130" width="80" height="100" rx="6" fill="#3a3820" opacity="0.2"/>
<rect x="310" y="180" width="50" height="70" rx="4" fill="#3a4a20" opacity="0.3"/>

<!-- House - clean right half -->
<rect x="400" y="50" width="400" height="300" fill="url(#psiding-clean)"/>
<!-- Clean siding lines -->
<g stroke="#9aa4ae" stroke-width="1.5" opacity="0.6">
  <line x1="400" y1="80" x2="800" y2="80"/>
  <line x1="400" y1="100" x2="800" y2="100"/>
  <line x1="400" y1="120" x2="800" y2="120"/>
  <line x1="400" y1="140" x2="800" y2="140"/>
  <line x1="400" y1="160" x2="800" y2="160"/>
  <line x1="400" y1="180" x2="800" y2="180"/>
  <line x1="400" y1="200" x2="800" y2="200"/>
  <line x1="400" y1="220" x2="800" y2="220"/>
  <line x1="400" y1="240" x2="800" y2="240"/>
  <line x1="400" y1="260" x2="800" y2="260"/>
  <line x1="400" y1="280" x2="800" y2="280"/>
  <line x1="400" y1="300" x2="800" y2="300"/>
  <line x1="400" y1="320" x2="800" y2="320"/>
  <line x1="400" y1="340" x2="800" y2="340"/>
</g>

<!-- Dividing water spray line -->
<rect x="390" y="50" width="20" height="300" fill="url(#pwater)" opacity="0.8" filter="url(#pglow)"/>
<rect x="395" y="50" width="10" height="300" fill="#a0d8f8" opacity="0.6" filter="url(#pglow)"/>

<!-- Windows dirty left -->
<rect x="60" y="100" width="120" height="100" fill="#1a1e20" opacity="0.7"/>
<rect x="200" y="100" width="120" height="100" fill="#1a1e20" opacity="0.7"/>
<!-- Windows clean right -->
<rect x="440" y="100" width="120" height="100" fill="#2a3a50" opacity="0.9"/>
<rect x="600" y="100" width="120" height="100" fill="#2a3a50" opacity="0.9"/>
<!-- Window reflections -->
<line x1="455" y1="105" x2="475" y2="105" stroke="#4a6a8a" stroke-width="1.5"/>
<line x1="615" y1="105" x2="635" y2="105" stroke="#4a6a8a" stroke-width="1.5"/>
<!-- Window trim clean -->
<rect x="438" y="98" width="124" height="104" fill="none" stroke="#c8d0d8" stroke-width="3"/>
<rect x="598" y="98" width="124" height="104" fill="none" stroke="#c8d0d8" stroke-width="3"/>

<!-- Driveway - dirty left -->
<rect x="0" y="350" width="400" height="170" fill="url(#pdrive-dirty)"/>
<g stroke="#1a1810" stroke-width="1" opacity="0.5">
  <line x1="0" y1="370" x2="400" y2="370"/>
  <line x1="0" y1="390" x2="400" y2="390"/>
  <line x1="0" y1="410" x2="400" y2="410"/>
  <line x1="0" y1="430" x2="400" y2="430"/>
  <line x1="0" y1="450" x2="400" y2="450"/>
  <line x1="100" y1="350" x2="100" y2="520"/>
  <line x1="200" y1="350" x2="200" y2="520"/>
  <line x1="300" y1="350" x2="300" y2="520"/>
</g>
<!-- Driveway stains dirty -->
<ellipse cx="150" cy="400" rx="80" ry="30" fill="#1a1808" opacity="0.4"/>
<ellipse cx="300" cy="460" rx="60" ry="20" fill="#1a1808" opacity="0.3"/>

<!-- Driveway - clean right -->
<rect x="400" y="350" width="400" height="170" fill="url(#pdrive-clean)"/>
<g stroke="#606058" stroke-width="1" opacity="0.4">
  <line x1="400" y1="370" x2="800" y2="370"/>
  <line x1="400" y1="390" x2="800" y2="390"/>
  <line x1="400" y1="410" x2="800" y2="410"/>
  <line x1="400" y1="430" x2="800" y2="430"/>
  <line x1="400" y1="450" x2="800" y2="450"/>
  <line x1="500" y1="350" x2="500" y2="520"/>
  <line x1="600" y1="350" x2="600" y2="520"/>
  <line x1="700" y1="350" x2="700" y2="520"/>
</g>
<!-- Driveway spray line -->
<rect x="390" y="350" width="20" height="170" fill="url(#pwater)" opacity="0.8" filter="url(#pglow)"/>
<rect x="395" y="350" width="10" height="170" fill="#a0d8f8" opacity="0.6" filter="url(#pglow)"/>

<!-- Worker silhouette right -->
<rect x="520" y="300" width="20" height="60" rx="4" fill="#1a2230" opacity="0.9"/>
<circle cx="530" cy="292" r="14" fill="#1a2230" opacity="0.9"/>
<!-- Pressure washer wand -->
<line x1="540" y1="330" x2="430" y2="380" stroke="#3a4a5a" stroke-width="4"/>
<line x1="430" y1="380" x2="400" y2="350" stroke="#3a4a5a" stroke-width="3"/>

<!-- Water spray fan -->
<path d="M 400 350 L 360 300 L 420 330 Z" fill="url(#pwater)" opacity="0.5" filter="url(#pglow)"/>
<path d="M 400 350 L 380 285 L 420 330 Z" fill="url(#pwater)" opacity="0.4" filter="url(#pglow)"/>

<!-- Labels -->
<rect x="30" y="460" width="80" height="24" rx="4" fill="rgba(0,0,0,0.6)"/>
<text x="70" y="477" font-family="Arial,sans-serif" font-size="11" fill="#a09060" text-anchor="middle">BEFORE</text>
<rect x="680" y="460" width="80" height="24" rx="4" fill="rgba(0,0,0,0.6)"/>
<text x="720" y="477" font-family="Arial,sans-serif" font-size="11" fill="#60a0c4" text-anchor="middle">AFTER</text>

<!-- Vignette -->
<radialGradient id="pvig" cx="50%" cy="50%" r="70%">
  <stop offset="0%" stop-color="transparent"/>
  <stop offset="100%" stop-color="rgba(0,0,0,0.5)"/>
</radialGradient>
<rect width="800" height="520" fill="url(#pvig)"/>
</svg>