<svg xmlns="http://www.w3.org/2000/svg" viewBox="0 0 800 480">
<defs>
  <linearGradient id="bg" x1="0" y1="0" x2="0" y2="1"><stop offset="0%" stop-color="#1a2a1e"/><stop offset="100%" stop-color="#243028"/></linearGradient>
  <linearGradient id="wall" x1="0" y1="0" x2="0" y2="1"><stop offset="0%" stop-color="#2a3830"/><stop offset="100%" stop-color="#1e2c24"/></linearGradient>
  <linearGradient id="floor" x1="0" y1="0" x2="1" y2="0"><stop offset="0%" stop-color="#4a3820"/><stop offset="50%" stop-color="#5a4828"/><stop offset="100%" stop-color="#4a3820"/></linearGradient>
  <radialGradient id="lamp" cx="50%" cy="0%" r="60%"><stop offset="0%" stop-color="#e8c870" stop-opacity="0.6"/><stop offset="100%" stop-color="transparent"/></radialGradient>
  <radialGradient id="vig" cx="50%" cy="50%" r="70%"><stop offset="0%" stop-color="transparent"/><stop offset="100%" stop-color="rgba(0,0,0,0.5)"/></radialGradient>
</defs>
<rect width="800" height="480" fill="url(#bg)"/>
<rect x="0" y="50" width="800" height="320" fill="url(#wall)"/>
<!-- Wood floor -->
<rect x="0" y="370" width="800" height="110" fill="url(#floor)"/>
<g stroke="#3a2c18" stroke-width="1.2" opacity="0.6">
  <line x1="0" y1="388" x2="800" y2="388"/><line x1="0" y1="406" x2="800" y2="406"/>
  <line x1="0" y1="424" x2="800" y2="424"/><line x1="0" y1="442" x2="800" y2="442"/>
  <line x1="0" y1="460" x2="800" y2="460"/>
  <line x1="100" y1="370" x2="100" y2="480"/><line x1="220" y1="370" x2="220" y2="480"/>
  <line x1="340" y1="370" x2="340" y2="480"/><line x1="460" y1="370" x2="460" y2="480"/>
  <line x1="580" y1="370" x2="580" y2="480"/><line x1="700" y1="370" x2="700" y2="480"/>
</g>
<!-- Warm ceiling light -->
<rect x="0" y="0" width="800" height="480" fill="url(#lamp)"/>
<!-- Ceiling light fixture -->
<rect x="360" y="0" width="80" height="12" rx="4" fill="#2a3020"/>
<rect x="370" y="10" width="60" height="8" rx="3" fill="#e8c870" opacity="0.8"/>
<!-- Dog bed / suite -->
<ellipse cx="400" cy="390" rx="160" ry="45" fill="#4a6035" opacity="0.8"/>
<ellipse cx="400" cy="386" rx="148" ry="40" fill="#5a7040" opacity="0.9"/>
<!-- Bed padding lines -->
<ellipse cx="400" cy="386" rx="130" ry="32" fill="none" stroke="#6a8050" stroke-width="2" opacity="0.6"/>
<ellipse cx="400" cy="386" rx="110" ry="24" fill="none" stroke="#6a8050" stroke-width="1.5" opacity="0.4"/>
<!-- Plush blanket / bedding -->
<ellipse cx="380" cy="380" rx="100" ry="28" fill="#c4922a" opacity="0.6"/>
<ellipse cx="380" cy="378" rx="90" ry="22" fill="#d4a840" opacity="0.5"/>
<!-- Sleeping dog silhouette -->
<ellipse cx="395" cy="372" rx="70" ry="18" fill="#2a1a10" opacity="0.7"/>
<ellipse cx="450" cy="368" rx="22" ry="16" fill="#2a1a10" opacity="0.7"/>
<ellipse cx="340" cy="376" rx="12" ry="8" fill="#2a1a10" opacity="0.6"/><!-- tail -->
<!-- Suite walls/gate -->
<rect x="100" y="120" width="600" height="250" fill="none" stroke="#3a5040" stroke-width="3"/>
<rect x="100" y="120" width="600" height="12" fill="#2e4035"/>
<rect x="100" y="358" width="600" height="12" fill="#2e4035"/>
<!-- Gate bars -->
<g stroke="#2e4035" stroke-width="8" opacity="0.7">
  <line x1="150" y1="132" x2="150" y2="358"/>
  <line x1="200" y1="132" x2="200" y2="358"/>
  <line x1="250" y1="132" x2="250" y2="358"/>
  <line x1="300" y1="132" x2="300" y2="358"/>
  <line x1="350" y1="132" x2="350" y2="358"/>
  <line x1="400" y1="132" x2="400" y2="358"/>
  <line x1="450" y1="132" x2="450" y2="358"/>
  <line x1="500" y1="132" x2="500" y2="358"/>
  <line x1="550" y1="132" x2="550" y2="358"/>
  <line x1="600" y1="132" x2="600" y2="358"/>
  <line x1="650" y1="132" x2="650" y2="358"/>
</g>
<!-- Nameplate on gate -->
<rect x="350" y="200" width="100" height="40" rx="6" fill="#c4922a" opacity="0.9"/>
<rect x="354" y="204" width="92" height="32" rx="4" fill="#b88820"/>
<!-- Water bowl -->
<ellipse cx="160" cy="395" rx="30" ry="10" fill="#3a5060" opacity="0.8"/>
<ellipse cx="160" cy="392" rx="24" ry="7" fill="#4a7080" opacity="0.7"/>
<!-- Food bowl -->
<ellipse cx="640" cy="395" rx="30" ry="10" fill="#5a4020" opacity="0.8"/>
<ellipse cx="640" cy="392" rx="22" ry="7" fill="#6a5030" opacity="0.7"/>
<!-- Wall decoration - paw print -->
<g transform="translate(200,180)" opacity="0.15" fill="white">
  <ellipse cx="0" cy="-15" rx="8" ry="10"/><ellipse cx="-12" cy="-8" rx="7" ry="9"/>
  <ellipse cx="12" cy="-8" rx="7" ry="9"/>
  <path d="M0 -5c-14 0-20 8-20 18s6 14 20 14 20-4 20-14-6-18-20-18z"/>
</g>
<rect width="800" height="480" fill="url(#vig)"/>
</svg>