<svg xmlns="http://www.w3.org/2000/svg" viewBox="0 0 800 480">
<defs>
  <linearGradient id="gpsky" x1="0" y1="0" x2="0" y2="1"><stop offset="0%" stop-color="#4a7aaa"/><stop offset="100%" stop-color="#6a9aba"/></linearGradient>
  <linearGradient id="gpgrass" x1="0" y1="0" x2="0" y2="1"><stop offset="0%" stop-color="#4a8040"/><stop offset="100%" stop-color="#2a5828"/></linearGradient>
  <radialGradient id="gpvig" cx="50%" cy="50%" r="70%"><stop offset="0%" stop-color="transparent"/><stop offset="100%" stop-color="rgba(0,0,0,0.45)"/></radialGradient>
</defs>
<rect width="800" height="480" fill="url(#gpsky)"/>
<!-- Clouds -->
<ellipse cx="200" cy="70" rx="90" ry="32" fill="white" opacity="0.75"/>
<ellipse cx="270" cy="62" rx="70" ry="28" fill="white" opacity="0.85"/>
<ellipse cx="600" cy="80" rx="80" ry="28" fill="white" opacity="0.7"/>
<!-- Trees -->
<g fill="#1e4428"><ellipse cx="60" cy="210" rx="55" ry="75"/><ellipse cx="140" cy="195" rx="50" ry="65"/><ellipse cx="660" cy="210" rx="55" ry="75"/><ellipse cx="740" cy="195" rx="50" ry="65"/></g>
<g fill="#0e2818"><rect x="35" y="260" width="20" height="220"/><rect x="116" y="245" width="20" height="235"/><rect x="638" y="260" width="20" height="220"/><rect x="718" y="245" width="20" height="235"/></g>
<!-- Grass -->
<rect x="0" y="280" width="800" height="200" fill="url(#gpgrass)"/>
<!-- Wood chip mulch ground -->
<rect x="80" y="320" width="640" height="160" fill="#6a4a28" opacity="0.7"/>
<g stroke="#5a3a1a" stroke-width="1" opacity="0.4">
  <line x1="80" y1="340" x2="720" y2="340"/><line x1="80" y1="360" x2="720" y2="360"/>
  <line x1="80" y1="380" x2="720" y2="380"/><line x1="80" y1="400" x2="720" y2="400"/>
</g>
<!-- Fence -->
<g fill="#5a3a1a" opacity="0.9">
  <rect x="80" y="280" width="8" height="80"/><rect x="160" y="280" width="8" height="80"/>
  <rect x="240" y="280" width="8" height="80"/><rect x="320" y="280" width="8" height="80"/>
  <rect x="400" y="280" width="8" height="80"/><rect x="480" y="280" width="8" height="80"/>
  <rect x="560" y="280" width="8" height="80"/><rect x="640" y="280" width="8" height="80"/>
  <rect x="720" y="280" width="8" height="80"/>
</g>
<rect x="80" y="288" width="648" height="10" rx="2" fill="#5a3a1a" opacity="0.9"/>
<rect x="80" y="328" width="648" height="10" rx="2" fill="#5a3a1a" opacity="0.9"/>
<!-- Multiple dogs playing -->
<!-- Large poodle/standard dog -->
<ellipse cx="300" cy="400" rx="40" ry="22" fill="#808080"/>
<ellipse cx="338" cy="386" rx="22" ry="18" fill="#808080"/>
<path d="M 268 390 Q 250 370 255 355" stroke="#808080" stroke-width="8" fill="none" stroke-linecap="round"/>
<!-- Beagle colors -->
<ellipse cx="460" cy="405" rx="35" ry="18" fill="#c4922a"/>
<ellipse cx="492" cy="393" rx="18" ry="15" fill="#c4922a"/>
<ellipse cx="480" cy="388" rx="8" ry="6" fill="#2a1a0a"/>
<path d="M 428 396 Q 415 375 420 360" stroke="#c4922a" stroke-width="7" fill="none" stroke-linecap="round"/>
<!-- White fluffy dog -->
<ellipse cx="580" cy="400" rx="32" ry="20" fill="#f0f0f0"/>
<ellipse cx="608" cy="388" rx="18" ry="16" fill="#f0f0f0"/>
<path d="M 554 392 Q 540 372 548 358" stroke="#f0f0f0" stroke-width="7" fill="none" stroke-linecap="round"/>
<!-- Black lab -->
<ellipse cx="200" cy="402" rx="38" ry="20" fill="#1a1a1a"/>
<ellipse cx="234" cy="390" rx="20" ry="16" fill="#1a1a1a"/>
<path d="M 166 394 Q 150 374 156 360" stroke="#1a1a1a" stroke-width="7" fill="none" stroke-linecap="round"/>
<!-- Golden retriever-ish dog -->
<ellipse cx="650" cy="398" rx="36" ry="20" fill="#d4a030"/>
<ellipse cx="682" cy="386" rx="19" ry="16" fill="#d4a030"/>
<path d="M 618 390 Q 602 370 608 355" stroke="#d4a030" stroke-width="7" fill="none" stroke-linecap="round"/>
<!-- Play toys / ball on ground -->
<circle cx="400" cy="425" r="14" fill="#e04020" opacity="0.8"/>
<circle cx="400" cy="425" r="14" fill="none" stroke="#c03010" stroke-width="2"/>
<line x1="392" y1="414" x2="408" y2="436" stroke="#c03010" stroke-width="1.5"/>
<!-- Sun beam -->
<rect width="800" height="480" fill="url(#gpvig)"/>
</svg>